<svg xmlns="http://www.w3.org/2000/svg" viewBox="0 0 720.81 117.57"><defs><style>.cls-1{fill:#fff;}</style></defs><g id="Capa_2" data-name="Capa 2"><g id="Capa_1-2" data-name="Capa 1"><path class="cls-1" d="M246.3,28.43h23.36l9,36.42,9-36.42h23.31V88.29H296.36V42.65L285.19,88.29H272L260.84,42.65V88.29H246.3Z"/><path class="cls-1" d="M322.2,28.43h47.54V41.21H340v9.51h27.64v12.2H340V74.75h30.65V88.29H322.2Z"/><path class="cls-1" d="M376.13,28.43h53.95V43.22H412V88.29H394.23V43.22h-18.1Z"/><path class="cls-1" d="M438.36,88.29V28.43h29.56c5.49,0,9.69.48,12.59,1.48a13.39,13.39,0,0,1,7,5.45A17,17,0,0,1,490.18,45a17.43,17.43,0,0,1-2,8.61,16.61,16.61,0,0,1-5.61,5.88,21.14,21.14,0,0,1-6.22,2.36,16.35,16.35,0,0,1,4.61,2.21,18.06,18.06,0,0,1,2.83,3.15A23.34,23.34,0,0,1,486.23,71l8.63,17.34H474.79L465.29,70a13.44,13.44,0,0,0-3.21-4.62A7.33,7.33,0,0,0,457.72,64H456.2V88.29ZM456.2,52.68h7.46a26,26,0,0,0,4.71-.8A4.81,4.81,0,0,0,471.25,50a5.84,5.84,0,0,0,1.11-3.47,5.61,5.61,0,0,0-1.78-4.46c-1.17-1-3.39-1.53-6.62-1.53H456.2Z"/><path class="cls-1" d="M496.9,58.4c0-9.77,2.64-17.37,7.84-22.82s12.52-8.18,21.83-8.18c9.56,0,16.93,2.7,22.1,8s7.75,12.84,7.75,22.49c0,7-1.13,12.73-3.38,17.18a24.4,24.4,0,0,1-9.81,10.47c-4.27,2.5-9.58,3.73-16,3.73s-11.84-1.06-16.08-3.18a24.64,24.64,0,0,1-10.31-10.23Q496.89,68.9,496.9,58.4Zm17.75.08c0,6,1.11,10.39,3.23,13a11.9,11.9,0,0,0,17.68.07c2.08-2.58,3.12-7.21,3.12-14,0-5.59-1.1-9.71-3.27-12.32a11,11,0,0,0-8.88-3.9,10.56,10.56,0,0,0-8.61,3.95C515.76,48,514.65,52.37,514.65,58.48Z"/><path class="cls-1" d="M566.05,28.43H583.8V51.05l18.59-22.62H626L605,51l21.92,37.27H605.09L593,63.67l-9.16,10V88.29H566.05Z"/><path class="cls-1" d="M633.51,28.43H651.3V88.29H633.51Z"/><path class="cls-1" d="M699.35,78.39H679.17l-2.78,9.9H658.27l21.6-59.86h19.34l21.6,59.86H702.22Zm-3.7-12.93L689.32,44,683,65.46Z"/><path class="cls-1" d="M200,17.12C177.87,6.05,148.45,0,117.17,0S56.56,6.05,34.43,17.12,0,43,0,58.79s12.22,30.54,34.43,41.63,51.5,17.15,82.74,17.15,60.7-6.09,82.78-17.15c22.23-11.09,34.44-25.88,34.44-41.63S222.18,28.24,200,17.12ZM13.71,58.79c0-28.37,46.44-51.43,103.46-51.43s103.5,23.06,103.5,51.43-46.41,51.37-103.5,51.37S13.71,87.11,13.71,58.79Z"/><path class="cls-1" d="M125.48,87.34V30a1.25,1.25,0,0,0-1.26-1.21H105.8c-.18,0-.18.17-.18.29v3c0,.13,0,.29.18.29h1.9a1.15,1.15,0,0,1,1.15,1.17V87.34a1.29,1.29,0,0,0,1.26,1.27h14.11A1.27,1.27,0,0,0,125.48,87.34Zm-15.72.47a.64.64,0,0,1-.2-.3A1.56,1.56,0,0,0,109.76,87.81Z"/><path class="cls-1" d="M137.55,88.61h13.83A1.93,1.93,0,0,0,153,87.37L164.8,50.25s.15-.52.58-.52.58.53.58.53l11.91,37.11a1.92,1.92,0,0,0,1.7,1.24h13.81a1.05,1.05,0,0,0,.89-.44,1.25,1.25,0,0,0,.23-1.08L175.23,29.62c-.26-.73-1-.82-1.68-.82H151.49a.31.31,0,0,0-.3.29v3a.31.31,0,0,0,.3.29h1.67a1.07,1.07,0,0,1,1.15,1,1.63,1.63,0,0,1-.15.66l-17.74,53a1.2,1.2,0,0,0,.23,1A1,1,0,0,0,137.55,88.61Zm41.36-1a.91.91,0,0,1-.32-.35A1.09,1.09,0,0,0,178.91,87.66Zm-24.1-53.35L137,87.3v0Zm-3.32-5.48-.07,0Z"/><path class="cls-1" d="M77.24,57.51a1.08,1.08,0,0,1-.25-.67,2.25,2.25,0,0,1,.25-.71v-.07L94.43,30.64a1.2,1.2,0,0,0,0-1.24,1,1,0,0,0-1-.6H78a3,3,0,0,0-2.21,1.34l-13.43,19c-.39.67-.8.67-.86.67-.44,0-.69-.24-.69-.61V30a1.22,1.22,0,0,0-1.23-1.21h-18c-.23,0-.36.13-.36.29v3c0,.15.13.29.36.29h1.88a1.12,1.12,0,0,1,1.12,1.17V87.34a1.28,1.28,0,0,0,1.29,1.27H59.61a1.26,1.26,0,0,0,1.23-1.27V64.74c0-.48.25-.79.69-.79s.61.34.81.58l0,.06L78.57,87.21a2.78,2.78,0,0,0,2.15,1.4H97a1.3,1.3,0,0,0,1-.67,1.28,1.28,0,0,0-.17-1.3C97.8,86.57,77.46,57.84,77.24,57.51ZM60.43,63.88a1.29,1.29,0,0,1-.09.16c0-.05,0-.09.06-.15Zm15.88-7A2.07,2.07,0,0,0,76.8,58,1.88,1.88,0,0,1,76.31,56.84Zm.08-26.33L63,49.47c-.07.12-.16.21-.22.31a1.51,1.51,0,0,1-.37.33l0,0,.12-.12L75.92,31a2.16,2.16,0,0,1,.57-.62A1.13,1.13,0,0,1,76.39,30.51Zm20.84,57.3-.08.07ZM76.89,30a2.7,2.7,0,0,0-.31.28,1.64,1.64,0,0,1,.31-.28A2,2,0,0,1,78,29.48,2,2,0,0,0,76.89,30Zm.72-1.1a1.6,1.6,0,0,1,.42-.07A1.6,1.6,0,0,0,77.61,28.9Z"/></g></g></svg>